<svg width="78" height="73" viewBox="0 0 78 73" fill="none" xmlns="http://www.w3.org/2000/svg">
<path fill-rule="evenodd" clip-rule="evenodd" d="M59.11 1.396C54.296 4.064 54.073 5.571 54.035 35.8C53.997 66.528 54.295 68.446 59.472 70.805C62.834 72.337 69.166 72.337 72.528 70.805C77.691 68.453 78 66.493 78 36.097C78 5.905 77.708 3.934 72.855 1.425C69.426 -0.348 62.284 -0.364 59.11 1.396ZM32.11 19.396C27.523 21.938 27.073 24.19 27.035 44.8C26.997 65.828 27.57 68.572 32.472 70.805C35.834 72.337 42.166 72.337 45.528 70.805C50.407 68.582 51 65.797 51 45.097C51 24.472 50.467 21.81 45.855 19.425C42.426 17.652 35.284 17.636 32.11 19.396ZM5.11 37.396C3.796 38.124 2.124 39.796 1.396 41.11C-0.312001 44.192 -0.460001 62.896 1.195 66.528C4.535 73.859 19.465 73.859 22.805 66.528C23.475 65.059 24 59.55 24 54C24 42.96 22.937 39.536 18.855 37.425C15.426 35.652 8.284 35.636 5.11 37.396Z" fill="white"/>
</svg>
